<svg xmlns="http://www.w3.org/2000/svg" viewBox="0 0 434.63 138.43"><defs><style>.cls-1{fill:#b31983;}.cls-2{fill:#4a4f54;}.cls-3{fill:#76bc21;}</style></defs><g id="Capa_2" data-name="Capa 2"><g id="Capa_1-2" data-name="Capa 1"><path class="cls-1" d="M132.22,73.4a38.57,38.57,0,0,0-4-4.18,40.48,40.48,0,0,0,4-4.18,28.54,28.54,0,0,0,4.93-8.47,20.8,20.8,0,0,0,1.22-8.78,19.25,19.25,0,0,0-2.59-8.17,20.23,20.23,0,0,0-14.86-10.06,27.33,27.33,0,0,0-10.36.61c-1.07.26-2.16.58-3.25,1,.37-1.1.69-2.19,1-3.26a27.13,27.13,0,0,0,.61-10.36,20.35,20.35,0,0,0-3.37-8.72,20.68,20.68,0,0,0-6.69-6.14A19.06,19.06,0,0,0,90.64.07a21,21,0,0,0-8.78,1.21A28.37,28.37,0,0,0,73.4,6.21a38.57,38.57,0,0,0-4.18,4,40.48,40.48,0,0,0-4.18-4,28.54,28.54,0,0,0-8.47-4.93A21,21,0,0,0,47.79.07a19.1,19.1,0,0,0-8.17,2.58,20.68,20.68,0,0,0-6.69,6.14,20.48,20.48,0,0,0-3.37,8.72,27.33,27.33,0,0,0,.61,10.36c.26,1.07.58,2.16,1,3.26-1.1-.38-2.19-.7-3.26-1a27.33,27.33,0,0,0-10.36-.61,20.48,20.48,0,0,0-8.72,3.37,20.68,20.68,0,0,0-6.14,6.69A19.1,19.1,0,0,0,.07,47.79a21,21,0,0,0,1.21,8.78A28.54,28.54,0,0,0,6.21,65a40.48,40.48,0,0,0,4,4.18,38.57,38.57,0,0,0-4,4.18,28.37,28.37,0,0,0-4.93,8.46A21,21,0,0,0,.07,90.64a19.06,19.06,0,0,0,2.58,8.17,20.68,20.68,0,0,0,6.14,6.69,20.35,20.35,0,0,0,8.72,3.37,23.37,23.37,0,0,0,3.48.25,29.38,29.38,0,0,0,6.88-.86c1.07-.26,2.16-.58,3.26-1-.38,1.09-.7,2.18-1,3.25a27.33,27.33,0,0,0-.61,10.36,20.23,20.23,0,0,0,10.06,14.86,19.25,19.25,0,0,0,8.17,2.59c.53,0,1.07.06,1.61.06a21.37,21.37,0,0,0,7.17-1.28A28.54,28.54,0,0,0,65,132.22a40.48,40.48,0,0,0,4.18-4,38.57,38.57,0,0,0,4.18,4,28.37,28.37,0,0,0,8.46,4.93A21.38,21.38,0,0,0,89,138.43c.53,0,1.07,0,1.6-.06a19.21,19.21,0,0,0,8.17-2.59,20.57,20.57,0,0,0,6.69-6.14,20.3,20.3,0,0,0,3.37-8.72,27.13,27.13,0,0,0-.61-10.36c-.26-1.07-.58-2.16-1-3.25,1.09.37,2.18.69,3.25,1a29.45,29.45,0,0,0,6.88.86,23.37,23.37,0,0,0,3.48-.25,20.3,20.3,0,0,0,8.72-3.37,20.57,20.57,0,0,0,6.14-6.69,19.21,19.21,0,0,0,2.59-8.17,20.82,20.82,0,0,0-1.22-8.78A28.37,28.37,0,0,0,132.22,73.4Zm-64-48.08c.31-.48.63-.94.94-1.37.31.43.63.89,1,1.37,2.38,3.6,3.64,6.86,3.64,9.43a12.87,12.87,0,0,1-1.14,5.82,3.6,3.6,0,0,1-3.49,2,3.37,3.37,0,0,1-3.35-2,12.94,12.94,0,0,1-1.19-5.88C64.62,32.18,65.88,28.92,68.26,25.32Zm1.91,87.8c-.31.47-.63.93-.94,1.36-.31-.43-.63-.89-1-1.36-2.38-3.61-3.64-6.87-3.64-9.44a12.9,12.9,0,0,1,1.14-5.82,3.6,3.6,0,0,1,3.49-2,3.41,3.41,0,0,1,3.36,2,13.08,13.08,0,0,1,1.18,5.88C73.81,106.25,72.56,109.51,70.17,113.12Zm58.15-18.66a12.09,12.09,0,0,1-3.58,3.92,11.86,11.86,0,0,1-5.07,1.94c-4.57.67-10.2-.81-16.26-4.27a36.71,36.71,0,0,1-7-5.74c-.69-.71-1.38-1.39-2-2L94,87.91l-1.29-1.29-.06-.06a.3.3,0,0,1-.08-.08l-.08-.06-.09-.08-.08-.06-.09-.07-.09-.06-.09-.07L92,86,91.89,86l-.1,0-.09,0-.1-.05-.09,0-.1,0-.09,0-.11,0-.08,0-.12,0-.08,0-.12,0-.08,0-.13,0-.08,0-.12,0h-.08l-.13,0h-.91l-.11,0h-.1l-.11,0h-.09l-.11,0-.09,0-.11,0-.1,0-.1,0-.1,0-.1,0-.09,0-.1,0-.1,0-.09,0-.1.05-.09,0-.09,0-.1.06-.08,0-.1.07-.08.06-.09.07-.08.06-.09.08-.08.06-.08.08-.07.06v0h0l-.06.07-.08.08-.06.08-.08.09-.06.08-.07.09-.06.08-.07.1a.35.35,0,0,1,0,.08l-.06.1,0,.09a.41.41,0,0,0,0,.09.93.93,0,0,1-.05.1l0,.09a1,1,0,0,1,0,.1,627969786021,627969786021,0,0,0-.08.2.36.36,0,0,1,0,.09l0,.1,0,.1,0,.1a.44.44,0,0,0,0,.1l0,.11a.44.44,0,0,1,0,.1.36.36,0,0,1,0,.1s0,.07,0,.1,0,.07,0,.11a.38.38,0,0,1,0,.1.34.34,0,0,1,0,.1v.11a.38.38,0,0,1,0,.1v.2a.45.45,0,0,1,0,.11V90a.41.41,0,0,1,0,.11.28.28,0,0,1,0,.09s0,.08,0,.11,0,.07,0,.1a.43.43,0,0,1,0,.11.29.29,0,0,1,0,.09l0,.11a.36.36,0,0,0,0,.1l0,.1,0,.1a.42.42,0,0,0,0,.1l0,.1,0,.1,0,.09a1,1,0,0,0,0,.1.93.93,0,0,1,0,.1.41.41,0,0,0,.05.09.93.93,0,0,0,0,.1l0,.09L86,92l0,.09.07.09.06.09.07.09.06.08.08.09.06.08a.3.3,0,0,1,.08.08l.06.06L87.91,94l.35.35c.66.67,1.34,1.35,2,2a36.71,36.71,0,0,1,5.74,7c3.46,6.06,4.94,11.69,4.27,16.26a11.86,11.86,0,0,1-1.94,5.07,12.09,12.09,0,0,1-3.92,3.58,11.24,11.24,0,0,1-9.69.69c-3.42-1.22-6.83-3.82-10-7.58.76-1,1.62-2.1,2.48-3.4,3.44-5.15,5.18-10,5.18-14.35a21.49,21.49,0,0,0-2.23-10,12,12,0,0,0-11-6.51h-.13a12.87,12.87,0,0,0-6.78,2,12.23,12.23,0,0,0-4.16,4.61,21.46,21.46,0,0,0-2.17,9.9c0,4.37,1.74,9.2,5.17,14.35.86,1.29,1.72,2.43,2.48,3.38-3.15,3.78-6.56,6.38-10,7.6a11.26,11.26,0,0,1-9.7-.69,12.09,12.09,0,0,1-3.92-3.58,11.86,11.86,0,0,1-1.94-5.07c-.67-4.57.81-10.2,4.28-16.26a36.63,36.63,0,0,1,5.73-7c.71-.69,1.39-1.38,2.06-2l.35-.35,1.28-1.29.06-.06.08-.09.06-.07.08-.09.06-.08.08-.09a.56.56,0,0,1,.05-.08.86.86,0,0,1,.07-.1.56.56,0,0,1,0-.08l.06-.1a.41.41,0,0,0,0-.09l.06-.1,0-.09s0-.07,0-.1l0-.09,0-.1a.42.42,0,0,0,0-.1,1,1,0,0,0,0-.1l0-.1,0-.1,0-.1,0-.1a.36.36,0,0,1,0-.1s0-.07,0-.1,0-.07,0-.11a.44.44,0,0,1,0-.1.34.34,0,0,1,0-.1s0-.07,0-.1,0-.07,0-.11v-.1a.34.34,0,0,0,0-.1v-.21a.34.34,0,0,0,0-.1v-.11s0-.07,0-.1,0-.07,0-.1a.41.41,0,0,1,0-.11.3.3,0,0,1,0-.1s0-.07,0-.1,0-.07,0-.1a.36.36,0,0,1,0-.11l0-.09,0-.11,0-.09,0-.11,0-.09a2197894251073.56,2197894251073.56,0,0,0-.08-.2,1,1,0,0,1,0-.1l0-.09a1,1,0,0,1,0-.1l-.06-.09a.41.41,0,0,0,0-.09l-.06-.09a.41.41,0,0,0,0-.09l-.06-.09-.07-.09-.06-.09L52.09,87,52,86.88,52,86.8l-.08-.08-.06-.07h0v0l-.06-.05-.09-.09-.07-.06-.1-.08-.07-.06-.1-.07-.08-.06-.09-.07L51,86l-.1-.06-.09,0-.09,0-.1-.05-.09,0-.1,0-.09,0-.11,0-.09,0-.11,0-.09,0-.11,0-.09,0-.12,0-.08,0-.12,0h-.09l-.12,0h-.91l-.12,0h-.09l-.11,0h-.09l-.11,0-.1,0-.1,0-.1,0-.1,0-.1,0-.1,0-.09,0-.11,0-.09,0-.1,0-.09.05-.1,0-.08,0-.1.06-.09,0-.09.07-.08.06-.09.07-.09.06-.08.07a.6.6,0,0,0-.08.08.27.27,0,0,0-.08.07l-.07.06L44.42,87.9l-.35.35c-.68.67-1.36,1.36-2.06,2.06a37,37,0,0,1-7,5.74C29,99.51,23.34,101,18.76,100.32a11.86,11.86,0,0,1-5.07-1.94,12.09,12.09,0,0,1-3.58-3.92,11.24,11.24,0,0,1-.69-9.69c1.22-3.42,3.82-6.83,7.59-10,.95.76,2.1,1.62,3.39,2.48,5.15,3.44,10,5.18,14.35,5.18a21.49,21.49,0,0,0,10-2.23,12,12,0,0,0,6.52-11v-.13a12.78,12.78,0,0,0-2-6.78,12.28,12.28,0,0,0-4.6-4.16A21.52,21.52,0,0,0,34.75,56c-4.37,0-9.2,1.74-14.35,5.17C19.11,62,18,62.89,17,63.65c-3.77-3.15-6.38-6.56-7.6-10a11.26,11.26,0,0,1,.69-9.7,12.09,12.09,0,0,1,3.58-3.92,11.86,11.86,0,0,1,5.07-1.94c4.58-.67,10.2.81,16.26,4.28a36.68,36.68,0,0,1,7,5.74l2,2,.35.35,1.28,1.28.07.06a.6.6,0,0,0,.08.08l.08.07.09.07.08.07.09.07.08.05.1.07.08,0,.1.06.09,0,.1.06.09,0,.1,0,.09,0,.1,0,.1,0,.1,0,.1,0,.1,0,.1,0,.1,0,.1,0,.1,0L48,53l.1,0h1.13l.11,0h.09l.11,0,.1,0,.11,0,.09,0,.11,0,.09,0,.1,0,.1,0,.1,0,.1,0,.09,0,.1,0,.09,0,.1-.05.09,0L51,52.4l.09,0,.09-.07.08-.06.1-.07.08-.06.08-.07.08-.07.08-.08.07-.06v0h0l.06-.06.08-.09.07-.08.07-.08.06-.08.08-.1a.56.56,0,0,0,.05-.08l.07-.09,0-.09.06-.1a.41.41,0,0,0,0-.09l.06-.09,0-.09,0-.1,0-.1a.36.36,0,0,0,0-.09l0-.1a1,1,0,0,1,0-.1l0-.1,0-.1,0-.1,0-.1a.43.43,0,0,1,0-.11s0-.06,0-.09,0-.08,0-.11a.36.36,0,0,1,0-.1.45.45,0,0,1,0-.11s0-.06,0-.1,0-.07,0-.1V49a.41.41,0,0,0,0-.11v-.2a.41.41,0,0,0,0-.11v-.1s0-.07,0-.1,0-.07,0-.1a.45.45,0,0,1,0-.11.36.36,0,0,1,0-.1s0-.07,0-.11,0-.06,0-.09a.43.43,0,0,1,0-.11l0-.1,0-.1,0-.1,0-.1a1,1,0,0,1,0-.1l0-.1a.36.36,0,0,0,0-.09l0-.1,0-.09a1,1,0,0,0,0-.1l-.06-.09a.41.41,0,0,0,0-.09l-.06-.1a.41.41,0,0,0,0-.09l-.07-.09a.56.56,0,0,0-.05-.08l-.08-.1L52.09,46,52,45.93,52,45.85l-.08-.09-.06-.06-1.28-1.28-.35-.35-2-2a37,37,0,0,1-5.74-7c-3.47-6.07-5-11.69-4.28-16.27A11.6,11.6,0,0,1,44,10.12a11.22,11.22,0,0,1,9.7-.7c3.42,1.22,6.82,3.82,10,7.59-.76.95-1.63,2.1-2.49,3.39C57.72,25.55,56,30.38,56,34.75a21.47,21.47,0,0,0,2.22,10,12,12,0,0,0,11,6.52h.13a12.78,12.78,0,0,0,6.78-2,12.28,12.28,0,0,0,4.16-4.6,21.52,21.52,0,0,0,2.17-9.91c0-4.37-1.74-9.2-5.17-14.35C76.4,19.11,75.54,18,74.78,17c3.15-3.77,6.56-6.38,10-7.6a11.2,11.2,0,0,1,9.69.7,11.6,11.6,0,0,1,5.86,8.64C101,23.34,99.51,29,96.05,35a36.71,36.71,0,0,1-5.74,7l-2.06,2.06-.34.34L86.62,45.7l-.06.07a.27.27,0,0,0-.07.08.6.6,0,0,0-.08.08l-.07.08-.07.09-.06.09-.06.08-.07.09,0,.09-.06.09,0,.1a.41.41,0,0,0,0,.09.47.47,0,0,0-.05.1l0,.09,0,.1,0,.09s0,.07,0,.11l0,.09a.36.36,0,0,0,0,.11l0,.09,0,.11a.29.29,0,0,0,0,.09l0,.11a.29.29,0,0,1,0,.09s0,.08,0,.12,0,.06,0,.09,0,.07,0,.11a.28.28,0,0,1,0,.09.37.37,0,0,1,0,.11v.1a.41.41,0,0,1,0,.11v.21a.31.31,0,0,1,0,.1v.1a.38.38,0,0,1,0,.1.41.41,0,0,1,0,.11s0,.07,0,.1,0,.07,0,.1a.44.44,0,0,1,0,.1.43.43,0,0,1,0,.11l0,.1a.36.36,0,0,0,0,.1l0,.1,0,.1,0,.1a.42.42,0,0,1,0,.1l0,.09a1,1,0,0,0,0,.1.69.69,0,0,1,0,.1.31.31,0,0,1,0,.1l.05.09a.93.93,0,0,0,0,.1.56.56,0,0,0,0,.08L86,51a.41.41,0,0,1,0,.09l.07.09.06.08.07.1.06.07.08.1.06.07.09.09.05.06h0v0l.07.06.08.08.08.07.09.07.08.07.09.06.08.06.09.07.09,0,.1.06.09,0,.09.05a.31.31,0,0,0,.1,0l.09,0,.1,0,.09,0,.1,0,.1,0,.1,0,.1,0,.1,0,.1,0,.1,0,.1,0L89,53h.09l.11,0h1.14l.08,0,.12,0,.08,0,.13,0,.08,0,.12,0,.08,0,.12,0,.08,0,.12,0,.08,0,.11-.05.09,0,.1,0,.09,0,.1-.06.09-.05.09-.06.09-.06.08-.06.1-.07.08-.07.09-.07a.46.46,0,0,1,.07-.07l.09-.08.06-.06L94,50.53l.35-.35c.67-.67,1.36-1.35,2-2.06a36.63,36.63,0,0,1,7-5.73c6.06-3.47,11.69-5,16.26-4.28a11.86,11.86,0,0,1,5.07,1.94A12.09,12.09,0,0,1,128.32,44a11.26,11.26,0,0,1,.69,9.7c-1.22,3.42-3.82,6.82-7.58,10-1-.76-2.1-1.63-3.4-2.49-5.15-3.43-10-5.17-14.35-5.17a21.47,21.47,0,0,0-10,2.22,12,12,0,0,0-6.51,11v.13a12.87,12.87,0,0,0,2,6.78,12.23,12.23,0,0,0,4.61,4.16,21.46,21.46,0,0,0,9.9,2.17c4.37,0,9.2-1.74,14.35-5.17,1.29-.86,2.43-1.72,3.38-2.48,3.78,3.15,6.38,6.56,7.6,10A11.24,11.24,0,0,1,128.32,94.46ZM24,69.23c.43-.31.89-.63,1.37-1,3.6-2.38,6.86-3.64,9.43-3.64a12.87,12.87,0,0,1,5.82,1.14,3.6,3.6,0,0,1,2,3.49,3.39,3.39,0,0,1-2,3.36,13.08,13.08,0,0,1-5.88,1.18c-2.57,0-5.83-1.25-9.43-3.64C24.84,69.86,24.38,69.54,24,69.23Zm90.53,0-1.36,1c-3.61,2.38-6.87,3.64-9.44,3.64a12.87,12.87,0,0,1-5.82-1.14,3.6,3.6,0,0,1-2-3.49,3.38,3.38,0,0,1,2-3.35,12.94,12.94,0,0,1,5.88-1.19c2.57,0,5.83,1.26,9.44,3.64C113.59,68.57,114.05,68.89,114.48,69.2Z"/><path class="cls-2" d="M168.11,82.64q-9.39,0-14.87-5.59l4.06-5.69a14.82,14.82,0,0,0,11.17,4.75A7.69,7.69,0,0,0,173,75a3.3,3.3,0,0,0,1.61-2.76,2.79,2.79,0,0,0-1.5-2.38,11,11,0,0,0-3.75-1.37,47.21,47.21,0,0,1-4.87-1.21,39.11,39.11,0,0,1-4.88-1.79A8.89,8.89,0,0,1,154.35,57,9.61,9.61,0,0,1,158,49.41q3.63-3.07,9.69-3.08,8.38,0,13.71,4.9l-4.17,5.48A14.5,14.5,0,0,0,167,52.87a6.25,6.25,0,0,0-3.69.94A3,3,0,0,0,162,56.4a2.5,2.5,0,0,0,1.5,2.13,11.86,11.86,0,0,0,3.75,1.29,43.22,43.22,0,0,1,4.84,1.24,42.67,42.67,0,0,1,4.85,1.84,9.09,9.09,0,0,1,3.74,3.22,9,9,0,0,1,1.51,5.24,10.27,10.27,0,0,1-3.61,8.17Q175,82.65,168.11,82.64Z"/><path class="cls-2" d="M194.88,82.64a7.43,7.43,0,0,1-5.38-1.79,6.89,6.89,0,0,1-1.84-5.17V62.4h-4.22V56.55h4.22V49.6h6.74v6.95h5.17V62.4H194.4V73.89a3,3,0,0,0,.64,2,2,2,0,0,0,1.68.8A3.17,3.17,0,0,0,199,76L200.46,81Q198.61,82.64,194.88,82.64Z"/><path class="cls-2" d="M226.13,82h-6.7V79.37q-2.73,3.27-8.06,3.27a9.41,9.41,0,0,1-6.14-2.24,7.58,7.58,0,0,1-2.71-6.19A7.3,7.3,0,0,1,205.18,68,9.83,9.83,0,0,1,211.37,66c3.62,0,6.31,1,8.06,3.11V65.67a3.73,3.73,0,0,0-1.52-3.11,6.59,6.59,0,0,0-4.06-1.16,10.65,10.65,0,0,0-7.43,3l-2.53-4.48a16.2,16.2,0,0,1,11.12-4,13.28,13.28,0,0,1,8,2.27q3.1,2.27,3.11,7.38Zm-12.07-3.9c2.49,0,4.29-.74,5.37-2.22V72.73c-1.08-1.47-2.88-2.21-5.37-2.21a5.55,5.55,0,0,0-3.43,1,3.33,3.33,0,0,0-1.37,2.82,3.22,3.22,0,0,0,1.37,2.74A5.73,5.73,0,0,0,214.06,78.11Z"/><path class="cls-2" d="M239.46,82h-6.69V56.55h6.69V60a11.2,11.2,0,0,1,3.64-3,9.56,9.56,0,0,1,4.48-1.16v6.54a8.34,8.34,0,0,0-1.85-.16,8.85,8.85,0,0,0-3.58.84,6,6,0,0,0-2.69,2.06Z"/><path class="cls-3" d="M259.77,82h-7.48V46.86h24.88v6.59h-17.4v7.43h17v6.58h-17Z"/><path class="cls-3" d="M288.92,82h-6.7V46.86h6.7Z"/><path class="cls-3" d="M317.16,78.77a14.31,14.31,0,0,1-19.57,0,14.13,14.13,0,0,1,0-19,14.36,14.36,0,0,1,19.57,0,14.07,14.07,0,0,1,0,19Zm-14.54-4.22a5.8,5.8,0,0,0,4.74,2.14,5.89,5.89,0,0,0,4.77-2.14,8.73,8.73,0,0,0,0-10.54,5.88,5.88,0,0,0-4.77-2.13A5.79,5.79,0,0,0,302.62,64a8.85,8.85,0,0,0,0,10.54Z"/><path class="cls-3" d="M355.27,82h-7.12l-5.37-17.34L337.4,82h-7.17l-7.74-25.46h6.95l4.75,17.13,5.58-17.13h6l5.58,17.13,4.75-17.13H363Z"/><path class="cls-3" d="M378.29,82.64A13.53,13.53,0,0,1,368.54,79a12.83,12.83,0,0,1-3.84-9.69,13.15,13.15,0,0,1,3.71-9.49,12.57,12.57,0,0,1,9.46-3.85,11.89,11.89,0,0,1,9.23,3.88,14.48,14.48,0,0,1,3.53,10.14v1.48H371.71A6.44,6.44,0,0,0,374,75.63,7.44,7.44,0,0,0,379,77.32a11.09,11.09,0,0,0,3.66-.69,8,8,0,0,0,3.14-1.84l2.95,4.32Q384.94,82.64,378.29,82.64Zm5.85-15.76a6.39,6.39,0,0,0-1.71-3.9,5.79,5.79,0,0,0-4.56-1.74A5.72,5.72,0,0,0,373.45,63a6.86,6.86,0,0,0-1.85,3.92Z"/><path class="cls-3" d="M402.17,82h-6.7V56.55h6.7V60a11.27,11.27,0,0,1,3.63-3,9.62,9.62,0,0,1,4.48-1.16v6.54a8.18,8.18,0,0,0-1.84-.16,8.9,8.9,0,0,0-3.59.84,5.94,5.94,0,0,0-2.68,2.06Z"/><path class="cls-3" d="M423.61,82.64a19.27,19.27,0,0,1-6.35-1,14.34,14.34,0,0,1-5-2.9l2.9-4.69a13.39,13.39,0,0,0,4,2.42,12.31,12.31,0,0,0,4.79,1.06,5.67,5.67,0,0,0,3.19-.74,2.3,2.3,0,0,0,1.08-2,1.79,1.79,0,0,0-1.13-1.56,9.14,9.14,0,0,0-2.8-.87,35,35,0,0,1-3.63-.79A24.62,24.62,0,0,1,417,70.26a6.68,6.68,0,0,1-3.93-6.33,7.15,7.15,0,0,1,2.8-5.69,11.63,11.63,0,0,1,7.64-2.32,16,16,0,0,1,10.28,3.48L431.1,64a9.34,9.34,0,0,0-3.24-2.11,11.18,11.18,0,0,0-4.3-.85,5.26,5.26,0,0,0-2.9.72,2.11,2.11,0,0,0-1.1,1.81c0,.57.37,1,1.1,1.4a9.71,9.71,0,0,0,2.8.82,29.53,29.53,0,0,1,3.63.81,26.38,26.38,0,0,1,3.64,1.32,6.61,6.61,0,0,1,2.79,2.45,7.34,7.34,0,0,1,1.11,4.11,7.16,7.16,0,0,1-2.93,5.88C429.75,81.88,427.06,82.64,423.61,82.64Z"/><path class="cls-2" d="M299.6,112v.77c0,.85-.6,1.28-1.8,1.28a2,2,0,0,1-1.31-.33,1.31,1.31,0,0,1-.37-1V92.83a1.28,1.28,0,0,1,.4-1,2,2,0,0,1,1.31-.33,2.17,2.17,0,0,1,1.36.33,1.23,1.23,0,0,1,.41,1v7.45a4.72,4.72,0,0,1,4-2,6.08,6.08,0,0,1,4.89,2.15,8.59,8.59,0,0,1,1.82,5.72,8.86,8.86,0,0,1-1.75,5.78,5.73,5.73,0,0,1-4.65,2.14A4.71,4.71,0,0,1,299.6,112Zm0-4.56a3.88,3.88,0,0,0,.93,2.63,3.2,3.2,0,0,0,2.53,1.07,3.28,3.28,0,0,0,2.76-1.32,5.93,5.93,0,0,0,1-3.63,5.8,5.8,0,0,0-1-3.57,3.56,3.56,0,0,0-5.28-.28,3.8,3.8,0,0,0-.95,2.66Z"/><path class="cls-2" d="M326.52,112.45a7,7,0,0,1-7.67,7.65,10.26,10.26,0,0,1-3.7-.72c-1.24-.48-1.87-1.06-1.87-1.75a2,2,0,0,1,.44-1.24,1.24,1.24,0,0,1,1-.55,2,2,0,0,1,1,.27,7.25,7.25,0,0,0,3.36,1,3.78,3.78,0,0,0,3-1.14,4.91,4.91,0,0,0,1-3.33v-.92a5.14,5.14,0,0,1-4.63,2.38,5.09,5.09,0,0,1-3.86-1.54,5.75,5.75,0,0,1-1.47-4.15V99.74c0-.91.58-1.37,1.74-1.37a2.2,2.2,0,0,1,1.34.32,1.27,1.27,0,0,1,.4,1V108a3.18,3.18,0,0,0,.78,2.25,2.74,2.74,0,0,0,2.14.85,3.28,3.28,0,0,0,2.62-1.1,4.67,4.67,0,0,0,.94-3.14V99.74c0-.91.59-1.37,1.77-1.37a2.08,2.08,0,0,1,1.31.33,1.3,1.3,0,0,1,.4,1Z"/><path class="cls-2" d="M349.42,101a5.35,5.35,0,0,1,5-2.64,4.9,4.9,0,0,1,3.76,1.49,5.81,5.81,0,0,1,1.4,4.14v8.73c0,.91-.57,1.37-1.69,1.37a2.16,2.16,0,0,1-1.37-.34,1.27,1.27,0,0,1-.4-1v-8.25a3.29,3.29,0,0,0-.7-2.23,2.42,2.42,0,0,0-1.95-.81,3,3,0,0,0-2.45,1,4.59,4.59,0,0,0-.89,3v7.2c0,.91-.57,1.37-1.71,1.37a2.09,2.09,0,0,1-1.35-.34,1.24,1.24,0,0,1-.4-1v-8.25a3.29,3.29,0,0,0-.7-2.23,2.45,2.45,0,0,0-2-.81,3,3,0,0,0-2.45,1,4.59,4.59,0,0,0-.89,3v7.2c0,.91-.59,1.37-1.77,1.37s-1.7-.46-1.7-1.37v-13a1.18,1.18,0,0,1,.39-1,3,3,0,0,1,2.68,0,1.2,1.2,0,0,1,.4,1v1a5,5,0,0,1,4.37-2.32A4.41,4.41,0,0,1,349.42,101Z"/><path class="cls-2" d="M373.09,111.91a4.6,4.6,0,0,1-4.33,2.2,5.71,5.71,0,0,1-4.63-2.14,8.86,8.86,0,0,1-1.75-5.78,8.53,8.53,0,0,1,1.82-5.73,6.09,6.09,0,0,1,4.89-2.14,4.55,4.55,0,0,1,4,2v-.54c0-.91.59-1.37,1.77-1.37a2,2,0,0,1,1.29.33,1.3,1.3,0,0,1,.4,1v12.94a1.35,1.35,0,0,1-.37,1,2.23,2.23,0,0,1-1.39.32c-1.14,0-1.7-.43-1.7-1.28Zm0-6.91a3.81,3.81,0,0,0-.95-2.65,3.22,3.22,0,0,0-2.52-1,3.26,3.26,0,0,0-2.77,1.32,5.9,5.9,0,0,0-1,3.57,5.82,5.82,0,0,0,1,3.64,3.28,3.28,0,0,0,2.75,1.31,3.18,3.18,0,0,0,2.53-1.07,3.79,3.79,0,0,0,.94-2.63Z"/><path class="cls-2" d="M383.94,112.68c0,.91-.59,1.37-1.77,1.37s-1.71-.46-1.71-1.37V92.77a1.16,1.16,0,0,1,.4-1,3,3,0,0,1,2.67,0,1.19,1.19,0,0,1,.41,1Z"/><path class="cls-2" d="M389.57,92.35a2,2,0,0,1,1.38.54,1.77,1.77,0,0,1,.58,1.31,1.69,1.69,0,0,1-.58,1.28,2,2,0,0,1-1.38.54,1.89,1.89,0,0,1-1.36-.54,1.71,1.71,0,0,1-.56-1.28,1.76,1.76,0,0,1,.57-1.31A1.9,1.9,0,0,1,389.57,92.35Zm1.74,20.33c0,.91-.59,1.37-1.77,1.37s-1.71-.46-1.71-1.37v-13a1.16,1.16,0,0,1,.4-1,3,3,0,0,1,2.68,0,1.2,1.2,0,0,1,.4,1Z"/><path class="cls-2" d="M407.41,101a5.35,5.35,0,0,1,5-2.64,4.9,4.9,0,0,1,3.76,1.49,5.81,5.81,0,0,1,1.4,4.14v8.73c0,.91-.57,1.37-1.69,1.37a2.16,2.16,0,0,1-1.37-.34,1.27,1.27,0,0,1-.4-1v-8.25a3.29,3.29,0,0,0-.7-2.23,2.42,2.42,0,0,0-1.95-.81,3,3,0,0,0-2.45,1,4.59,4.59,0,0,0-.89,3v7.2c0,.91-.57,1.37-1.71,1.37a2.09,2.09,0,0,1-1.35-.34,1.24,1.24,0,0,1-.4-1v-8.25a3.29,3.29,0,0,0-.7-2.23,2.45,2.45,0,0,0-2-.81,3,3,0,0,0-2.45,1,4.59,4.59,0,0,0-.89,3v7.2c0,.91-.59,1.37-1.77,1.37s-1.7-.46-1.7-1.37v-13a1.18,1.18,0,0,1,.39-1,2.19,2.19,0,0,1,1.35-.32,2.16,2.16,0,0,1,1.33.32,1.2,1.2,0,0,1,.4,1v1a5,5,0,0,1,4.37-2.32A4.41,4.41,0,0,1,407.41,101Z"/><path class="cls-2" d="M431.08,111.91a4.6,4.6,0,0,1-4.33,2.2,5.71,5.71,0,0,1-4.63-2.14,8.86,8.86,0,0,1-1.75-5.78,8.53,8.53,0,0,1,1.82-5.73,6.08,6.08,0,0,1,4.88-2.14,4.56,4.56,0,0,1,4,2v-.54c0-.91.59-1.37,1.76-1.37a2,2,0,0,1,1.3.33,1.3,1.3,0,0,1,.4,1v12.94a1.35,1.35,0,0,1-.37,1,2.23,2.23,0,0,1-1.39.32c-1.14,0-1.7-.43-1.7-1.28Zm0-6.91a3.81,3.81,0,0,0-.95-2.65,3.22,3.22,0,0,0-2.52-1,3.26,3.26,0,0,0-2.77,1.32,5.9,5.9,0,0,0-1,3.57,5.82,5.82,0,0,0,1,3.64,3.28,3.28,0,0,0,2.75,1.31,3.18,3.18,0,0,0,2.53-1.07,3.83,3.83,0,0,0,.94-2.63Z"/></g></g></svg>