<svg xmlns="http://www.w3.org/2000/svg" viewBox="0 0 278.04 278.04"><defs><style>.cls-1{fill:#b31983;}</style></defs><g id="Capa_2" data-name="Capa 2"><g id="Capa_1-2" data-name="Capa 1"><path class="cls-1" d="M265.56,147.41a78.59,78.59,0,0,0-8.11-8.39,78.59,78.59,0,0,0,8.11-8.39,57,57,0,0,0,9.9-17A42.13,42.13,0,0,0,277.91,96a38.64,38.64,0,0,0-5.19-16.4,40.62,40.62,0,0,0-29.85-20.21,54.73,54.73,0,0,0-20.81,1.23q-3.23.78-6.54,1.91,1.14-3.3,1.92-6.53a54.74,54.74,0,0,0,1.23-20.81,41.2,41.2,0,0,0-6.77-17.52A41.61,41.61,0,0,0,198.46,5.32,38.64,38.64,0,0,0,182.06.13a42.12,42.12,0,0,0-17.64,2.44,57.24,57.24,0,0,0-17,9.91A78.59,78.59,0,0,0,139,20.59a79.55,79.55,0,0,0-8.39-8.11,57.24,57.24,0,0,0-17-9.91A42.12,42.12,0,0,0,96,.13a38.64,38.64,0,0,0-16.4,5.19A41.61,41.61,0,0,0,66.14,17.65a41.2,41.2,0,0,0-6.77,17.52A54.74,54.74,0,0,0,60.6,56q.78,3.23,1.91,6.53Q59.21,61.39,56,60.6a54.74,54.74,0,0,0-20.81-1.23,41.2,41.2,0,0,0-17.52,6.77A41.5,41.5,0,0,0,5.32,79.58,38.64,38.64,0,0,0,.13,96a42.12,42.12,0,0,0,2.44,17.64,57.24,57.24,0,0,0,9.91,17A78.59,78.59,0,0,0,20.59,139a78.59,78.59,0,0,0-8.11,8.39,57.24,57.24,0,0,0-9.91,17A42.12,42.12,0,0,0,.13,182.06a38.64,38.64,0,0,0,5.19,16.4A41.61,41.61,0,0,0,17.65,211.9a41.2,41.2,0,0,0,17.52,6.77,48.63,48.63,0,0,0,7,.5A58.82,58.82,0,0,0,56,217.44q3.23-.78,6.53-1.92-1.12,3.31-1.91,6.54a54.73,54.73,0,0,0-1.23,20.81,40.62,40.62,0,0,0,20.21,29.85A38.64,38.64,0,0,0,96,277.91c1.07.08,2.15.13,3.23.13a42.59,42.59,0,0,0,14.41-2.58,57,57,0,0,0,17-9.9,79.55,79.55,0,0,0,8.39-8.11,78.59,78.59,0,0,0,8.39,8.11,57,57,0,0,0,17,9.9A42.59,42.59,0,0,0,178.83,278c1.08,0,2.15-.05,3.23-.13a38.64,38.64,0,0,0,16.4-5.19,40.62,40.62,0,0,0,20.21-29.85,54.73,54.73,0,0,0-1.23-20.81q-.78-3.23-1.92-6.54,3.31,1.14,6.54,1.92a58.82,58.82,0,0,0,13.82,1.73,48.63,48.63,0,0,0,7-.5,40.62,40.62,0,0,0,29.85-20.21,38.64,38.64,0,0,0,5.19-16.4,42.13,42.13,0,0,0-2.45-17.64A57,57,0,0,0,265.56,147.41ZM137.1,50.85c.63-1,1.27-1.88,1.89-2.74.63.86,1.27,1.78,1.9,2.74,4.79,7.24,7.31,13.79,7.31,18.95,0,4.79-.81,8.94-2.28,11.68s-3.54,4-7,4.09a6.81,6.81,0,0,1-6.74-4c-1.52-2.82-2.39-7.12-2.39-11.81C129.78,64.64,132.31,58.09,137.1,50.85Zm3.84,176.34c-.63,1-1.27,1.88-1.9,2.74-.62-.86-1.26-1.78-1.89-2.74-4.79-7.24-7.31-13.79-7.31-18.95,0-4.79.81-8.94,2.28-11.68s3.54-4,7-4.09c3.27,0,5.23,1.16,6.74,4s2.39,7.12,2.39,11.81C148.26,213.4,145.73,220,140.94,227.19Zm116.78-37.47a24.26,24.26,0,0,1-7.17,7.88,23.86,23.86,0,0,1-10.2,3.9c-9.18,1.34-20.48-1.63-32.66-8.59-4.69-2.69-9.41-7-14-11.53-1.39-1.41-2.77-2.79-4.12-4.12l-.7-.7L186.25,174l-.13-.12-.16-.16-.16-.14-.18-.15-.17-.13-.17-.13-.18-.13-.18-.12-.18-.12-.18-.11-.2-.11-.18-.1-.2-.1-.18-.08-.21-.1-.17-.07-.23-.09L183,172l-.23-.08-.17,0-.24-.07-.16,0-.24-.06-.17,0-.24,0-.17,0-.25,0-.16,0-.25,0H179.5l-.18,0-.23,0-.19,0-.22,0-.19,0-.21,0-.2.05-.21.05-.19.06-.21.06-.19.07-.21.07-.19.07-.2.09-.19.08-.19.1-.19.09-.19.11-.18.1-.2.12-.17.11-.19.13-.16.12-.19.14-.16.12-.18.15-.15.14-.17.16L174,174l0,0,0,0-.12.13-.16.17-.14.15-.15.18-.12.16-.14.19-.12.16-.13.19-.11.18-.12.19a1.62,1.62,0,0,0-.1.18l-.11.19-.09.19-.1.19c0,.07-.05.13-.08.19l-.09.2c0,.07,0,.13-.07.2a1673745108186.52,1673745108186.52,0,0,1-.14.4l-.06.2-.06.2a1.46,1.46,0,0,0-.05.2c0,.07,0,.14-.05.21s0,.13,0,.2a1.55,1.55,0,0,0,0,.21l0,.2,0,.21c0,.07,0,.14,0,.2s0,.14,0,.21,0,.14,0,.21,0,.14,0,.2v.42c0,.07,0,.14,0,.21s0,.14,0,.2,0,.15,0,.22,0,.13,0,.19l0,.22,0,.2a2.07,2.07,0,0,0,0,.22c0,.06,0,.12,0,.18a1.89,1.89,0,0,0,.05.23,1.21,1.21,0,0,0,.05.18l.06.22.06.19a1.72,1.72,0,0,0,.07.21c0,.06,0,.12.07.19l.08.2a1.08,1.08,0,0,0,.08.19,1.67,1.67,0,0,0,.08.2,1.74,1.74,0,0,0,.1.19l.09.19.11.19a1.62,1.62,0,0,0,.1.18l.12.19a1.74,1.74,0,0,0,.11.18l.13.19a1.67,1.67,0,0,0,.12.16,1.33,1.33,0,0,0,.14.19l.12.16.15.18.14.16.16.16.12.13,2.58,2.58.7.7c1.33,1.35,2.71,2.73,4.12,4.12,4.56,4.63,8.84,9.35,11.53,14,7,12.18,9.93,23.48,8.59,32.66a23.86,23.86,0,0,1-3.9,10.2,24.15,24.15,0,0,1-7.88,7.17c-5.81,3.39-12.54,3.87-19.47,1.4s-13.71-7.67-20-15.24c1.53-1.91,3.27-4.22,5-6.82,6.9-10.34,10.39-20,10.39-28.82,0-5.37-.77-13.2-4.47-20.05a24.08,24.08,0,0,0-22.07-13.08h-.26a25.76,25.76,0,0,0-13.61,4,24.7,24.7,0,0,0-8.37,9.26c-3.6,6.69-4.35,14.51-4.35,19.89,0,8.78,3.49,18.48,10.39,28.82,1.72,2.59,3.45,4.89,5,6.79-6.32,7.58-13.17,12.81-20,15.27s-13.66,2-19.47-1.4a24.26,24.26,0,0,1-7.88-7.17,23.86,23.86,0,0,1-3.9-10.2c-1.34-9.18,1.63-20.48,8.59-32.66,2.68-4.69,7-9.4,11.53-14,1.41-1.39,2.78-2.77,4.12-4.12l.7-.7,2.58-2.58.11-.12.17-.18.13-.14c0-.07.11-.13.16-.19l.12-.15a2.43,2.43,0,0,0,.14-.2l.12-.16.13-.19.11-.17.12-.2.1-.17a2,2,0,0,1,.11-.2l.09-.18.1-.2c0-.06,0-.13.08-.19a1.67,1.67,0,0,0,.08-.2c0-.06,0-.13.08-.2l.07-.19a1.72,1.72,0,0,0,.07-.21l.06-.19.06-.21c0-.07,0-.13,0-.2s0-.14.05-.21,0-.13,0-.2,0-.14,0-.21l0-.2,0-.21a1.36,1.36,0,0,1,0-.2c0-.07,0-.14,0-.21s0-.14,0-.21a1.27,1.27,0,0,1,0-.2v-.42a1.48,1.48,0,0,1,0-.21c0-.07,0-.14,0-.2s0-.15,0-.22a1.23,1.23,0,0,1,0-.19l0-.22,0-.2c0-.07,0-.14,0-.21s0-.13,0-.2,0-.14-.05-.21a1.05,1.05,0,0,0,0-.19l-.06-.22-.06-.18a1.42,1.42,0,0,0-.07-.22,1.34,1.34,0,0,0-.07-.18,1.8,1.8,0,0,0-.08-.21,1.54,1.54,0,0,0-.08-.19c0-.06,0-.13-.09-.2a1.51,1.51,0,0,0-.09-.18l-.09-.2-.11-.19-.1-.18-.12-.19a1.74,1.74,0,0,0-.11-.18l-.13-.18-.12-.17-.13-.18-.14-.17a2.09,2.09,0,0,0-.14-.17c0-.05-.09-.11-.14-.17l-.15-.15-.13-.14,0,0,0,0-.12-.11-.18-.17-.15-.13-.18-.16-.16-.12-.19-.14a1,1,0,0,0-.17-.12l-.18-.13-.18-.11-.19-.12-.19-.11-.18-.1-.2-.1-.18-.09-.21-.09-.18-.07-.22-.09-.17-.06-.23-.08-.17,0-.23-.07-.18,0-.23-.05-.17,0-.24,0-.18,0-.24,0-.17,0-.24,0H97.25l-.19,0-.22,0-.19,0-.22,0-.19,0-.22,0-.19.05-.21.05-.2.06-.21.06L95,172l-.2.07-.19.07-.2.09-.19.08-.2.1-.18.09-.2.11-.17.1-.2.12-.17.11-.19.13-.17.12-.18.13-.16.13-.17.15-.17.14-.16.15a1.59,1.59,0,0,1-.13.13c-.86.84-1.72,1.71-2.58,2.57l-.71.71c-1.34,1.34-2.73,2.71-4.12,4.12-4.63,4.56-9.35,8.84-14,11.53-12.18,7-23.48,9.93-32.66,8.59a23.81,23.81,0,0,1-10.2-3.9,24.15,24.15,0,0,1-7.17-7.88c-3.39-5.81-3.87-12.54-1.4-19.47s7.67-13.71,15.24-20c1.9,1.53,4.22,3.27,6.82,5,10.34,6.9,20,10.39,28.82,10.39,5.37,0,13.2-.77,20-4.47a24.07,24.07,0,0,0,13.09-22.07v-.26a25.76,25.76,0,0,0-4-13.61,24.78,24.78,0,0,0-9.26-8.37c-6.69-3.6-14.51-4.35-19.89-4.35C61,112.48,51.32,116,41,122.87c-2.59,1.72-4.89,3.45-6.79,5-7.58-6.32-12.81-13.17-15.27-20s-2-13.66,1.4-19.47a24.15,24.15,0,0,1,7.17-7.88,23.81,23.81,0,0,1,10.2-3.9c9.18-1.34,20.48,1.63,32.66,8.59,4.68,2.68,9.4,7,14,11.53,1.39,1.41,2.77,2.78,4.11,4.12.24.24.48.47.71.71l2.58,2.57.13.12.16.16.16.14.18.15.16.12.19.15.16.11.2.13.17.11.19.12.18.1.2.11.18.09.2.1.19.08.2.09.2.07.19.08.21.06.19.07.21,0,.2,0,.21.05.2,0,.22,0,.19,0,.22,0,.2,0,.22,0h1.22l.22,0,.2,0,.22,0,.19,0,.22,0,.19,0,.21-.05.2,0,.21-.06.19-.06.2-.07.2-.07.2-.08.19-.08.19-.09.2-.09.18-.1.2-.1.18-.1.19-.12.17-.11.19-.13.16-.12a1.33,1.33,0,0,0,.19-.14l.16-.13a1.22,1.22,0,0,0,.17-.15l.16-.13.17-.16.13-.12,0,0,0,0,.12-.13.16-.17.13-.15.16-.18.12-.16.14-.19.12-.16.13-.2s.07-.11.11-.17l.12-.19.1-.18.11-.19.09-.19.1-.19.08-.2a1.54,1.54,0,0,0,.08-.19l.08-.2a1.59,1.59,0,0,0,.07-.2,1.18,1.18,0,0,0,.07-.2l.06-.2.06-.21a1.05,1.05,0,0,0,0-.19c0-.07,0-.14.05-.21s0-.13,0-.2,0-.14,0-.21l0-.2,0-.21a1.23,1.23,0,0,1,0-.2c0-.08,0-.15,0-.22s0-.13,0-.2a1.48,1.48,0,0,1,0-.21v-.41a1.48,1.48,0,0,1,0-.21c0-.07,0-.14,0-.21s0-.14,0-.21a1.36,1.36,0,0,1,0-.2l0-.21,0-.2c0-.07,0-.15,0-.22s0-.13,0-.19,0-.14-.05-.21a1.46,1.46,0,0,0,0-.2l-.06-.21-.06-.19a1.72,1.72,0,0,0-.07-.21,1.46,1.46,0,0,0-.07-.19,1.19,1.19,0,0,0-.08-.2,1.08,1.08,0,0,0-.08-.19c0-.07,0-.14-.08-.2s-.07-.13-.1-.19l-.09-.19-.11-.19-.1-.18-.12-.2c0-.05-.07-.11-.11-.17l-.13-.19-.12-.17-.14-.18-.12-.16-.16-.18-.13-.16-.16-.16-.12-.13-2.57-2.58c-.24-.23-.47-.47-.71-.71-1.34-1.34-2.71-2.72-4.12-4.11-4.56-4.64-8.84-9.35-11.53-14-7-12.18-9.93-23.48-8.59-32.66a23.81,23.81,0,0,1,3.9-10.2,24.15,24.15,0,0,1,7.88-7.17c5.81-3.39,12.54-3.87,19.47-1.4s13.71,7.67,20,15.24c-1.52,1.91-3.26,4.22-5,6.82-6.9,10.34-10.39,20-10.39,28.82,0,5.37.77,13.2,4.47,20A24.07,24.07,0,0,0,139,102.93h.26a25.76,25.76,0,0,0,13.61-4,24.86,24.86,0,0,0,8.37-9.26c3.59-6.69,4.35-14.51,4.35-19.89,0-8.78-3.5-18.48-10.39-28.82-1.72-2.59-3.45-4.89-5-6.79,6.32-7.58,13.17-12.81,20.05-15.27s13.66-2,19.47,1.4a24.15,24.15,0,0,1,7.88,7.17,23.81,23.81,0,0,1,3.9,10.2c1.34,9.18-1.63,20.48-8.59,32.66-2.69,4.68-7,9.4-11.53,14-1.41,1.39-2.78,2.78-4.12,4.12l-.7.7L174,91.79l-.13.13-.15.16-.14.17a2.09,2.09,0,0,0-.14.17,1.15,1.15,0,0,0-.14.17l-.13.17-.13.18-.12.18-.12.18-.11.18-.11.2-.1.18-.1.2-.09.18-.09.2-.07.18-.09.22L172,95c0,.07-.05.14-.08.22a1.21,1.21,0,0,1,0,.18l-.06.22a1.21,1.21,0,0,0-.05.18,1.89,1.89,0,0,0-.05.23,1.16,1.16,0,0,0,0,.18,1.85,1.85,0,0,0,0,.23l0,.18,0,.23c0,.06,0,.12,0,.19s0,.15,0,.22,0,.13,0,.19,0,.15,0,.22v.42a1.27,1.27,0,0,1,0,.2c0,.07,0,.14,0,.21s0,.14,0,.2,0,.14,0,.21l0,.21,0,.2a1.55,1.55,0,0,0,0,.21c0,.07,0,.14,0,.2s0,.14.05.21a1.46,1.46,0,0,0,.05.2l.06.2.06.2a2092181385227.33,2092181385227.33,0,0,1,.14.4c0,.07.05.13.07.2l.09.2.08.18.1.21.09.18c0,.06.07.13.11.2l.1.17.12.2.11.16.13.2.11.16.15.19.12.16.16.18.13.15.17.18.11.12,0,0,0,0,.14.13.15.14.17.15.17.14.17.14.17.13.18.12.18.13.18.11.18.12.19.1.18.1.2.1.18.09.2.09.19.08.21.08.18.07.21.07.19.06.22.06.19,0,.21.05.19,0,.21,0,.2,0,.21,0,.21,0h.2l.21,0h1l.24,0,.17,0,.25,0,.16,0,.25,0,.17,0,.24-.06.17,0,.24-.07.16,0,.24-.07.17-.07.22-.08.18-.08.21-.09.18-.09.21-.1.18-.1.19-.11.18-.11.18-.12.19-.12.17-.12.19-.15.16-.12.18-.16.15-.13.18-.16.12-.12c.86-.85,1.72-1.72,2.58-2.58.23-.23.47-.46.7-.7,1.35-1.34,2.73-2.71,4.12-4.12,4.64-4.56,9.35-8.85,14-11.53,12.18-7,23.48-9.93,32.66-8.59a23.86,23.86,0,0,1,10.2,3.9,24.26,24.26,0,0,1,7.17,7.88c3.39,5.81,3.87,12.54,1.4,19.47s-7.67,13.71-15.24,20c-1.91-1.52-4.22-3.26-6.82-5-10.34-6.9-20-10.39-28.82-10.39-5.37,0-13.2.77-20.05,4.47A24.08,24.08,0,0,0,175.11,139v.26a25.76,25.76,0,0,0,4,13.61,24.79,24.79,0,0,0,9.26,8.37c6.69,3.59,14.51,4.35,19.89,4.35,8.78,0,18.48-3.5,28.82-10.39,2.59-1.72,4.89-3.45,6.79-5,7.58,6.32,12.81,13.17,15.27,20.05S261.11,183.91,257.72,189.72ZM48.11,139.05c.86-.63,1.78-1.27,2.74-1.9,7.24-4.79,13.79-7.31,18.95-7.31,4.79,0,8.94.81,11.68,2.28s4,3.54,4.09,7a6.81,6.81,0,0,1-4,6.74c-2.82,1.51-7.12,2.39-11.81,2.39-5.16,0-11.71-2.53-18.95-7.32C49.89,140.31,49,139.67,48.11,139.05ZM229.93,139c-.86.63-1.78,1.27-2.74,1.9-7.24,4.79-13.79,7.31-18.95,7.31-4.79,0-8.94-.81-11.68-2.28s-4-3.54-4.09-7c0-3.27,1.16-5.23,4-6.74s7.12-2.39,11.81-2.39c5.16,0,11.71,2.53,18.95,7.32C228.15,137.73,229.07,138.37,229.93,139Z"/></g></g></svg>